# Exported using Kenney Suite 1.1 

mtllib wallNarrow.mtl 

g wallNarrow

v 0 2.8 0 
v 0 0 0 
v -5.288024E-13 2.8 -10 
v -5.288024E-13 0 -10 
v 5 0 -2.607917E-13 
v 5 2.8 -2.607917E-13 
v 5 0 -10 
v 5 2.8 -10 
v 4.65 4.5 -2.425926E-13 
v 0.35 4.5 -1.825542E-14 
v 4.65 10.1 -2.425926E-13 
v 0.35 10.1 -1.825542E-14 
v 5 11.1 -2.607917E-13 
v 0 11.1 0 
v 5 11.8 -2.607917E-13 
v 2.091643 11.8 -1.09153E-13 
v 0 12.65 0 
v 1.195049 12.2 -4.789355E-14 
v 2.091643 12.2 -1.09153E-13 
v 1.195049 12.65 -4.789355E-14 
v 0.35 4.5 -10 
v 4.65 4.5 -10 
v 5 11.1 -10 
v 4.65 10.1 -10 
v -5.251928E-13 11.1 -10 
v 0.35 10.1 -10 
v -1.303958E-13 13.1 -2.5 
v -1.303958E-13 12.65 -2.5 
v -2.607917E-13 13.1 -5 
v -2.607917E-13 12.65 -5 
v -3.911875E-13 12.65 -7.5 
v -5.251928E-13 13.1 -10 
v -3.911875E-13 13.1 -7.5 
v 5 11.8 -10 
v 1.195049 12.2 -2.5 
v 1.695049 12.2 -2.5 
v 1.695049 12.2 -5 
v 1.695049 12.2 -7.5 
v 2.091643 12.2 -10 
v 1.695049 12.2 -10 
v 1.195049 12.2 -7.5 
v 1.195049 12.2 -5 
v 1.695049 13.1 -7.5 
v 1.695049 13.1 -10 
v 1.695049 13.1 -2.5 
v 1.695049 13.1 -5 
v 1.195049 12.65 -5 
v 1.195049 12.65 -7.5 
v 1.195049 12.65 -2.5 
v 2.091643 11.8 -10 

vn -1 0 5.215833E-14
vn 1 0 -5.215833E-14
vn 5.215833E-14 0 1
vn -0.9794571 0.2016529 5.108685E-14
vn 0.9794571 0.2016529 -5.108685E-14
vn 0.9438583 -0.3303504 -4.923007E-14
vn -0.9438583 -0.3303504 4.923007E-14
vn 0 1 0
vn -5.215833E-14 0 -1
vn 0 -1 0

vt 0 11.02362
vt 0 0
vt -39.37008 11.02362
vt -39.37008 0
vt 39.37008 0
vt 39.37008 11.02362
vt 19.68504 2.449713E-30
vt 19.68504 11.02362
vt 18.30709 17.71654
vt 1.377953 17.71654
vt 18.30709 39.76378
vt 1.377953 39.76378
vt 19.68504 43.70079
vt 0 43.70079
vt 19.68504 46.45669
vt 8.234817 46.45669
vt 0 49.80315
vt 4.704919 48.0315
vt 8.234817 48.0315
vt 4.704919 49.80315
vt 0 17.63045
vt 0 10.79716
vt -39.37008 17.63045
vt -39.37008 10.79716
vt -3.71572E-17 6.827619
vt 1.874884E-16 13.66091
vt 39.37008 6.827619
vt 39.37008 13.66091
vt 0 47.75031
vt 39.37008 47.75031
vt 2.220446E-16 43.57913
vt 39.37008 43.57913
vt 0 41.24735
vt 0 37.07617
vt -39.37008 41.24735
vt -39.37008 37.07617
vt -9.84252 51.5748
vt -9.84252 49.80315
vt -19.68504 51.5748
vt -19.68504 49.80315
vt -39.37008 43.70079
vt -29.52756 49.80315
vt -39.37008 51.5748
vt -29.52756 51.5748
vt 0 46.45669
vt 39.37008 43.70079
vt 39.37008 46.45669
vt 4.704919 -5.684342E-14
vt 4.704919 9.84252
vt 8.234817 2.220446E-16
vt 6.673423 9.84252
vt 6.673423 19.68504
vt 6.673423 29.52756
vt 8.234817 39.37008
vt 6.673423 39.37008
vt 4.704919 29.52756
vt 4.704919 19.68504
vt 29.52756 48.0315
vt 29.52756 51.5748
vt 39.37008 48.0315
vt 39.37008 51.5748
vt 9.84252 48.0315
vt 9.84252 51.5748
vt 19.68504 48.0315
vt 19.68504 51.5748
vt 0 9.84252
vt 0 19.68504
vt -1.421085E-14 39.37008
vt 0 29.52756
vt -5.684342E-14 48.0315
vt -5.684342E-14 49.80315
vt 9.84252 49.80315
vt 6.673423 48.0315
vt 6.673423 51.5748
vt 0 51.5748
vt 19.68504 49.80315
vt 29.52756 49.80315
vt -1.248649E-13 49.80315
vt -1.248649E-13 51.5748
vt -4.704919 49.80315
vt -6.673423 51.5748
vt -6.673423 48.0315
vt -4.704919 48.0315
vt 2.220446E-16 46.45669
vt 2.220446E-16 48.0315
vt -8.234817 46.45669
vt -19.68504 43.70079
vt -19.68504 46.45669
vt 2.081092E-14 43.70079
vt -18.30709 39.76378
vt -1.377953 39.76378
vt -18.30709 17.71654
vt -1.377953 17.71654
vt -19.68504 11.02362
vt 3.502178E-14 11.02362
vt -19.68504 -1.656951E-14
vt 3.502178E-14 -1.656951E-14
vt 2.081092E-14 51.5748
vt -8.234817 48.0315
vt 2.842171E-14 39.37008
vt -19.68504 39.37008
vt -19.68504 0
vt 0 39.76378
vt 0 17.71654
vt -39.37008 39.76378
vt -39.37008 17.71654
vt 2.220446E-16 17.71654
vt 2.220446E-16 39.76378
vt 39.37008 17.71654
vt 39.37008 39.76378
vt 19.68504 39.37008
vt 19.68504 0

usemtl wall
usemap wall

f 2/2/1 1/1/1 3/3/1
f 3/3/1 4/4/1 2/2/1
f 6/1/2 5/2/2 7/5/2
f 7/5/2 8/6/2 6/1/2
f 2/2/3 5/7/3 6/8/3
f 6/8/3 1/1/3 2/2/3
f 6/8/3 9/9/3 1/1/3
f 9/9/3 10/10/3 1/1/3
f 9/9/3 11/11/3 10/10/3
f 11/11/3 12/12/3 10/10/3
f 11/11/3 13/13/3 12/12/3
f 13/13/3 14/14/3 12/12/3
f 13/13/3 15/15/3 14/14/3
f 15/15/3 16/16/3 14/14/3
f 16/16/3 17/17/3 14/14/3
f 16/16/3 18/18/3 17/17/3
f 16/16/3 19/19/3 18/18/3
f 18/18/3 20/20/3 17/17/3
f 1/22/4 10/21/4 21/23/4
f 21/23/4 3/24/4 1/22/4
f 9/26/5 6/25/5 8/27/5
f 8/27/5 22/28/5 9/26/5
f 23/30/6 13/29/6 11/31/6
f 11/31/6 24/32/6 23/30/6
f 12/34/7 14/33/7 25/35/7
f 25/35/7 26/36/7 12/34/7
f 28/38/1 27/37/1 29/39/1
f 28/38/1 29/39/1 30/40/1
f 28/38/1 30/40/1 25/41/1
f 28/38/1 25/41/1 14/14/1
f 14/14/1 17/17/1 28/38/1
f 30/40/1 31/42/1 25/41/1
f 31/42/1 32/43/1 25/41/1
f 31/42/1 33/44/1 32/43/1
f 15/45/2 13/14/2 23/46/2
f 23/46/2 34/47/2 15/45/2
f 35/49/8 18/48/8 19/50/8
f 19/50/8 36/51/8 35/49/8
f 19/50/8 37/52/8 36/51/8
f 19/50/8 38/53/8 37/52/8
f 19/50/8 39/54/8 38/53/8
f 40/55/8 38/53/8 39/54/8
f 37/52/8 38/53/8 41/56/8
f 41/56/8 42/57/8 37/52/8
f 43/59/2 38/58/2 40/60/2
f 40/60/2 44/61/2 43/59/2
f 45/63/2 36/62/2 37/64/2
f 37/64/2 46/65/2 45/63/2
f 29/67/8 27/66/8 45/51/8
f 45/51/8 46/52/8 29/67/8
f 44/55/8 32/68/8 33/69/8
f 33/69/8 43/53/8 44/55/8
f 31/69/8 30/67/8 47/57/8
f 47/57/8 48/56/8 31/69/8
f 28/66/8 17/2/8 20/48/8
f 20/48/8 49/49/8 28/66/8
f 20/71/2 18/70/2 35/62/2
f 35/62/2 49/72/2 20/71/2
f 35/18/3 36/73/3 45/74/3
f 45/74/3 49/20/3 35/18/3
f 45/74/3 28/17/3 49/20/3
f 45/74/3 27/75/3 28/17/3
f 47/76/2 42/64/2 41/58/2
f 41/58/2 48/77/2 47/76/2
f 41/18/3 38/73/3 43/74/3
f 43/74/3 48/20/3 41/18/3
f 43/74/3 31/78/3 48/20/3
f 43/74/3 33/79/3 31/78/3
f 47/80/9 30/17/9 29/75/9
f 47/80/9 29/75/9 46/81/9
f 47/80/9 46/81/9 37/82/9
f 37/82/9 42/83/9 47/80/9
f 19/85/2 16/84/2 50/47/2
f 50/47/2 39/60/2 19/85/2
f 23/87/9 50/86/9 34/88/9
f 25/89/9 50/86/9 23/87/9
f 25/89/9 23/87/9 24/90/9
f 26/91/9 25/89/9 24/90/9
f 26/91/9 24/90/9 22/92/9
f 21/93/9 26/91/9 22/92/9
f 21/93/9 22/92/9 8/94/9
f 3/95/9 21/93/9 8/94/9
f 3/95/9 8/94/9 7/96/9
f 7/96/9 4/97/9 3/95/9
f 25/89/9 32/98/9 50/86/9
f 32/98/9 40/82/9 50/86/9
f 32/98/9 44/81/9 40/82/9
f 50/86/9 40/82/9 39/99/9
f 2/2/10 4/100/10 7/101/10
f 7/101/10 5/102/10 2/2/10

usemtl wallDark
usemap wallDark

f 10/104/1 12/103/1 26/105/1
f 26/105/1 21/106/1 10/104/1
f 11/108/2 9/107/2 22/109/2
f 22/109/2 24/110/2 11/108/2
f 34/111/8 50/54/8 16/50/8
f 16/50/8 15/112/8 34/111/8
