# Exported using Kenney Suite 1.1 

mtllib wall.mtl 

g wall

v 0 2.8 0 
v 0 0 0 
v -5.215833E-13 2.8 -10 
v -5.215833E-13 0 -10 
v 10 0 -5.215833E-13 
v 10 2.8 -5.215833E-13 
v 10 0 -10 
v 10 2.8 -10 
v 9.65 4.5 -4.997183E-13 
v 0.35 4.5 -1.825542E-14 
v 9.65 10.1 -4.997183E-13 
v 0.35 10.1 -1.825542E-14 
v 10 11.1 -5.215833E-13 
v 0 11.1 0 
v 7.908356 11.8 -4.088771E-13 
v 10 12.65 -5.215833E-13 
v 8.804951 12.2 -4.484229E-13 
v 8.804951 12.65 -4.484229E-13 
v 7.908356 12.2 -4.088771E-13 
v 2.091643 11.8 -1.054871E-13 
v 0 12.65 0 
v 1.195049 12.2 -5.15031E-14 
v 2.091643 12.2 -1.054871E-13 
v 1.195049 12.65 -5.15031E-14 
v 0.35 4.5 -10 
v 9.65 4.5 -10 
v 9.65 10.1 -10 
v 10 11.1 -10 
v -5.179737E-13 11.1 -10 
v 0.35 10.1 -10 
v -1.303958E-13 13.1 -2.5 
v -1.303958E-13 12.65 -2.5 
v -2.571821E-13 13.1 -5 
v -2.571821E-13 12.65 -5 
v -3.875779E-13 12.65 -7.5 
v -5.179737E-13 13.1 -10 
v -3.875779E-13 13.1 -7.5 
v 10 12.65 -2.5 
v 10 13.1 -2.5 
v 10 12.65 -5 
v 10 12.65 -7.5 
v 10 13.1 -7.5 
v 10 13.1 -10 
v 10 13.1 -5 
v 8.304951 13.1 -7.5 
v 8.304951 13.1 -10 
v 1.195049 12.2 -2.5 
v 1.695049 12.2 -2.5 
v 1.695049 12.2 -5 
v 1.695049 12.2 -7.5 
v 2.091643 12.2 -10 
v 1.695049 12.2 -10 
v 1.195049 12.2 -7.5 
v 1.195049 12.2 -5 
v 8.304951 12.2 -7.5 
v 8.304951 12.2 -10 
v 1.695049 13.1 -7.5 
v 1.695049 13.1 -10 
v 1.695049 13.1 -2.5 
v 1.695049 13.1 -5 
v 8.304951 13.1 -2.5 
v 8.304951 12.2 -2.5 
v 8.304951 13.1 -5 
v 8.304951 12.2 -5 
v 8.804951 12.65 -5 
v 8.804951 12.65 -7.5 
v 8.804951 12.65 -2.5 
v 1.195049 12.65 -5 
v 1.195049 12.65 -7.5 
v 1.195049 12.65 -2.5 
v 8.804951 12.2 -5 
v 8.804951 12.2 -7.5 
v 8.804951 12.2 -2.5 
v 7.908356 12.2 -10 
v 7.908356 11.8 -10 
v 2.091643 11.8 -10 

vn -1 0 5.215833E-14
vn 1 0 -5.215833E-14
vn 5.215833E-14 0 1
vn -0.9794571 0.2016529 5.108685E-14
vn 0.9794571 0.2016529 -5.108685E-14
vn 0.9438583 -0.3303504 -4.923007E-14
vn -0.9438583 -0.3303504 4.923007E-14
vn 0 1 0
vn -5.215833E-14 0 -1
vn 0 -1 0

vt 0 11.02362
vt 0 0
vt -39.37008 11.02362
vt -39.37008 0
vt 39.37008 0
vt 39.37008 11.02362
vt 37.99213 17.71654
vt 1.377953 17.71654
vt 37.99213 39.76378
vt 1.377953 39.76378
vt 39.37008 43.70079
vt 0 43.70079
vt 31.13526 46.45669
vt 39.37008 49.80315
vt 34.66516 48.0315
vt 34.66516 49.80315
vt 31.13526 48.0315
vt 8.234817 46.45669
vt 0 49.80315
vt 4.704919 48.0315
vt 8.234817 48.0315
vt 4.704919 49.80315
vt 0 17.63045
vt 0 10.79716
vt -39.37008 17.63045
vt -39.37008 10.79716
vt -1.421085E-14 9.691362
vt 39.37008 9.691362
vt 0 2.858073
vt 39.37008 2.858073
vt -1.421085E-14 50.08209
vt 0 54.25328
vt 39.37008 50.08209
vt 39.37008 54.25328
vt 0 41.24735
vt 0 37.07617
vt -39.37008 41.24735
vt -39.37008 37.07617
vt -9.84252 51.5748
vt -9.84252 49.80315
vt -19.68504 51.5748
vt -19.68504 49.80315
vt -39.37008 43.70079
vt -29.52756 49.80315
vt -39.37008 51.5748
vt -29.52756 51.5748
vt 9.84252 49.80315
vt 9.84252 51.5748
vt 19.68504 49.80315
vt 29.52756 49.80315
vt 29.52756 51.5748
vt 39.37008 51.5748
vt 19.68504 51.5748
vt 32.69666 29.52756
vt 32.69666 39.37008
vt 39.37008 29.52756
vt 39.37008 39.37008
vt 4.704919 -4.263256E-14
vt 4.704919 9.84252
vt 8.234817 -1.421085E-14
vt 6.673423 9.84252
vt 6.673423 19.68504
vt 6.673423 29.52756
vt 8.234817 39.37008
vt 6.673423 39.37008
vt 4.704919 29.52756
vt 4.704919 19.68504
vt -29.52756 48.0315
vt -39.37008 48.0315
vt 29.52756 48.0315
vt 39.37008 48.0315
vt 9.84252 48.0315
vt 19.68504 48.0315
vt 0 9.84252
vt 1.421085E-14 19.68504
vt 1.421085E-14 29.52756
vt 1.421085E-14 39.37008
vt -9.84252 48.0315
vt -19.68504 48.0315
vt 32.69666 19.68504
vt 39.37008 19.68504
vt 32.69666 9.84252
vt 39.37008 9.84252
vt 34.66516 19.68504
vt 34.66516 29.52756
vt 34.66516 -4.263256E-14
vt 34.66516 9.84252
vt -4.263256E-14 48.0315
vt -4.263256E-14 49.80315
vt 6.673423 48.0315
vt 6.673423 51.5748
vt 0 51.5748
vt -1.106541E-13 49.80315
vt -1.106541E-13 51.5748
vt -1.421085E-14 49.80315
vt -4.704919 49.80315
vt -1.421085E-14 51.5748
vt -6.673423 51.5748
vt -6.673423 48.0315
vt -4.704919 48.0315
vt -32.69666 48.0315
vt -34.66516 48.0315
vt -32.69666 51.5748
vt -34.66516 49.80315
vt -39.37008 49.80315
vt 32.69666 51.5748
vt 32.69666 48.0315
vt 4.263256E-14 49.80315
vt 4.263256E-14 48.0315
vt 31.13526 39.37008
vt 31.13526 -1.421085E-14
vt 1.421085E-14 48.0315
vt 1.421085E-14 46.45669
vt -39.37008 46.45669
vt -1.421085E-14 46.45669
vt -1.421085E-14 48.0315
vt 39.37008 46.45669
vt 0 -2.662876E-14
vt -39.37008 -2.662876E-14
vt -1.377953 17.71654
vt -37.99213 17.71654
vt -1.377953 39.76378
vt -37.99213 39.76378
vt -1.421085E-14 43.70079
vt -8.234817 46.45669
vt -8.234817 48.0315
vt -31.13526 46.45669
vt -31.13526 48.0315
vt 0 39.37008
vt -39.37008 39.37008
vt 0 39.76378
vt 0 17.71654
vt -39.37008 39.76378
vt -39.37008 17.71654
vt -1.421085E-14 17.71654
vt -1.421085E-14 39.76378
vt 39.37008 17.71654
vt 39.37008 39.76378

usemtl wall
usemap wall

f 2/2/1 1/1/1 3/3/1
f 3/3/1 4/4/1 2/2/1
f 6/1/2 5/2/2 7/5/2
f 7/5/2 8/6/2 6/1/2
f 2/2/3 5/5/3 6/6/3
f 6/6/3 1/1/3 2/2/3
f 6/6/3 9/7/3 1/1/3
f 9/7/3 10/8/3 1/1/3
f 9/7/3 11/9/3 10/8/3
f 11/9/3 12/10/3 10/8/3
f 11/9/3 13/11/3 12/10/3
f 13/11/3 14/12/3 12/10/3
f 13/11/3 15/13/3 14/12/3
f 13/11/3 16/14/3 15/13/3
f 16/14/3 17/15/3 15/13/3
f 16/14/3 18/16/3 17/15/3
f 15/13/3 17/15/3 19/17/3
f 14/12/3 15/13/3 20/18/3
f 20/18/3 21/19/3 14/12/3
f 20/18/3 22/20/3 21/19/3
f 20/18/3 23/21/3 22/20/3
f 22/20/3 24/22/3 21/19/3
f 1/24/4 10/23/4 25/25/4
f 25/25/4 3/26/4 1/24/4
f 26/28/5 9/27/5 6/29/5
f 6/29/5 8/30/5 26/28/5
f 13/32/6 11/31/6 27/33/6
f 27/33/6 28/34/6 13/32/6
f 12/36/7 14/35/7 29/37/7
f 29/37/7 30/38/7 12/36/7
f 32/40/1 31/39/1 33/41/1
f 32/40/1 33/41/1 34/42/1
f 32/40/1 34/42/1 29/43/1
f 32/40/1 29/43/1 14/12/1
f 14/12/1 21/19/1 32/40/1
f 34/42/1 35/44/1 29/43/1
f 35/44/1 36/45/1 29/43/1
f 35/44/1 37/46/1 36/45/1
f 16/19/2 13/12/2 28/11/2
f 28/11/2 38/47/2 16/19/2
f 28/11/2 39/48/2 38/47/2
f 28/11/2 40/49/2 39/48/2
f 28/11/2 41/50/2 40/49/2
f 28/11/2 42/51/2 41/50/2
f 28/11/2 43/52/2 42/51/2
f 39/48/2 40/49/2 44/53/2
f 46/55/8 45/54/8 42/56/8
f 42/56/8 43/57/8 46/55/8
f 47/59/8 22/58/8 23/60/8
f 23/60/8 48/61/8 47/59/8
f 23/60/8 49/62/8 48/61/8
f 23/60/8 50/63/8 49/62/8
f 50/63/8 23/60/8 51/64/8
f 51/64/8 52/65/8 50/63/8
f 49/62/8 50/63/8 53/66/8
f 53/66/8 54/67/8 49/62/8
f 55/68/1 45/46/1 46/45/1
f 46/45/1 56/69/1 55/68/1
f 57/51/2 50/70/2 52/71/2
f 52/71/2 58/52/2 57/51/2
f 59/48/2 48/72/2 49/73/2
f 49/73/2 60/53/2 59/48/2
f 33/75/8 31/74/8 59/61/8
f 59/61/8 60/62/8 33/75/8
f 36/77/8 37/76/8 57/63/8
f 57/63/8 58/65/8 36/77/8
f 62/78/1 61/39/1 63/41/1
f 63/41/1 64/79/1 62/78/1
f 44/81/8 63/80/8 61/82/8
f 61/82/8 39/83/8 44/81/8
f 66/85/8 65/84/8 40/81/8
f 40/81/8 41/56/8 66/85/8
f 67/87/8 18/86/8 16/5/8
f 16/5/8 38/83/8 67/87/8
f 35/76/8 34/75/8 68/67/8
f 68/67/8 69/66/8 35/76/8
f 32/74/8 21/2/8 24/58/8
f 24/58/8 70/59/8 32/74/8
f 24/89/2 22/88/2 47/72/2
f 47/72/2 70/47/2 24/89/2
f 47/20/3 48/90/3 59/91/3
f 59/91/3 70/22/3 47/20/3
f 59/91/3 32/19/3 70/22/3
f 59/91/3 31/92/3 32/19/3
f 68/49/2 54/73/2 53/70/2
f 53/70/2 69/50/2 68/49/2
f 53/20/3 50/90/3 57/91/3
f 57/91/3 69/22/3 53/20/3
f 57/91/3 35/93/3 69/22/3
f 57/91/3 37/94/3 35/93/3
f 68/96/9 34/95/9 33/97/9
f 68/96/9 33/97/9 60/98/9
f 68/96/9 60/98/9 49/99/9
f 49/99/9 54/100/9 68/96/9
f 71/79/1 65/42/1 66/44/1
f 66/44/1 72/68/1 71/79/1
f 71/102/9 64/101/9 63/103/9
f 63/103/9 65/104/9 71/102/9
f 63/103/9 40/105/9 65/104/9
f 63/103/9 44/45/9 40/105/9
f 66/16/3 41/14/3 42/52/3
f 66/16/3 42/52/3 45/106/3
f 66/16/3 45/106/3 55/107/3
f 55/107/3 72/15/3 66/16/3
f 17/109/1 18/108/1 67/40/1
f 67/40/1 73/78/1 17/109/1
f 67/16/3 38/14/3 39/52/3
f 67/16/3 39/52/3 61/106/3
f 67/16/3 61/106/3 62/107/3
f 62/107/3 73/15/3 67/16/3
f 62/82/8 74/110/8 19/111/8
f 19/111/8 17/86/8 62/82/8
f 62/82/8 64/80/8 74/110/8
f 17/86/8 73/87/8 62/82/8
f 74/110/8 64/80/8 55/54/8
f 55/54/8 64/80/8 71/84/8
f 71/84/8 72/85/8 55/54/8
f 55/54/8 56/55/8 74/110/8
f 15/113/1 19/112/1 74/69/1
f 74/69/1 75/114/1 15/113/1
f 23/116/2 20/115/2 76/117/2
f 76/117/2 51/71/2 23/116/2
f 7/119/9 4/118/9 3/1/9
f 3/1/9 8/3/9 7/119/9
f 3/1/9 25/120/9 8/3/9
f 25/120/9 26/121/9 8/3/9
f 25/120/9 30/122/9 26/121/9
f 30/122/9 27/123/9 26/121/9
f 30/122/9 29/124/9 27/123/9
f 29/124/9 28/43/9 27/123/9
f 29/124/9 76/125/9 28/43/9
f 29/124/9 36/97/9 76/125/9
f 36/97/9 52/99/9 76/125/9
f 36/97/9 58/98/9 52/99/9
f 76/125/9 52/99/9 51/126/9
f 28/43/9 76/125/9 75/127/9
f 75/127/9 43/45/9 28/43/9
f 75/127/9 56/101/9 43/45/9
f 75/127/9 74/128/9 56/101/9
f 56/101/9 46/103/9 43/45/9
f 2/2/10 4/129/10 7/130/10
f 7/130/10 5/4/10 2/2/10

usemtl wallDark
usemap wallDark

f 10/132/1 12/131/1 30/133/1
f 30/133/1 25/134/1 10/132/1
f 11/136/2 9/135/2 26/137/2
f 26/137/2 27/138/2 11/136/2
f 76/64/8 20/60/8 15/111/8
f 15/111/8 75/110/8 76/64/8
