# Exported using Kenney Suite 1.1 

mtllib wallNarrowStairs.mtl 

g wallNarrowStairs

v 4.65 8.425 -4.095 
v 4.65 8.425 -4.7775 
v 7.325 8.425 -4.095 
v 7.325 8.425 -4.7775 
v 7.325 11.2375 -0.6825 
v 7.325 11.8 -0.6825 
v 5 11.2375 -0.6825 
v 5 11.8 -0.6825 
v 7.325 5.05 -5.46 
v 7.325 5.05 -8.190001 
v 9.65 5.05 -5.46 
v 9.65 5.05 -10 
v 4.65 5.05 -8.190001 
v 4.65 5.05 -10 
v 9.65 1.122222 -1.365 
v 7.325 1.122222 -1.365 
v 9.65 1.683333 -1.365 
v 7.325 1.683333 -1.365 
v 9.65 4.488889 -5.46 
v 7.325 4.488889 -5.46 
v 9.65 0.5611111 -0.6825 
v 7.325 0.5611111 -0.6825 
v 9.65 1.122222 -0.6825 
v 7.325 1.122222 -0.6825 
v 9.65 1.683333 -2.0475 
v 7.325 1.683333 -2.0475 
v 9.65 2.244444 -2.0475 
v 7.325 2.244444 -2.0475 
v 9.65 2.805555 -3.4125 
v 7.325 2.805555 -3.4125 
v 9.65 3.366666 -3.4125 
v 7.325 3.366666 -3.4125 
v 7.325 2.805555 -2.73 
v 9.65 2.805555 -2.73 
v 7.325 0.5611111 -3.874741E-13 
v 9.65 0.5611111 -5.033279E-13 
v 9.65 3.927778 -4.7775 
v 7.325 3.927778 -4.7775 
v 9.65 4.488889 -4.7775 
v 7.325 4.488889 -4.7775 
v 7.325 3.927778 -4.095 
v 9.65 3.927778 -4.095 
v 9.65 3.366666 -4.095 
v 7.325 3.366666 -4.095 
v 4.65 8.987499 -3.4125 
v 7.325 8.987499 -3.4125 
v 4.65 9.55 -3.4125 
v 7.325 9.55 -3.4125 
v 4.65 5.6125 -7.5075 
v 7.325 5.6125 -7.5075 
v 4.65 6.175 -7.5075 
v 7.325 6.175 -7.5075 
v 4.65 7.8625 -4.7775 
v 7.325 7.8625 -4.7775 
v 4.65 7.8625 -5.46 
v 7.325 7.8625 -5.46 
v 4.65 8.987499 -4.095 
v 7.325 8.987499 -4.095 
v 7.325 10.675 -1.365 
v 7.325 11.2375 -1.365 
v 4.85125 10.675 -1.365 
v 5 11.1 -1.365 
v 5 11.2375 -1.365 
v 4.65 6.7375 -6.1425 
v 7.325 6.7375 -6.1425 
v 4.65 7.3 -6.1425 
v 7.325 7.3 -6.1425 
v 4.65 6.175 -6.825 
v 7.325 6.175 -6.825 
v 4.65 6.7375 -6.825 
v 7.325 6.7375 -6.825 
v 7.325 10.1125 -2.0475 
v 7.325 10.675 -2.0475 
v 4.654375 10.1125 -2.0475 
v 4.85125 10.675 -2.0475 
v 7.325 2.086775E-15 -4.163505E-13 
v -1.506148E-27 2.086775E-15 -2.887646E-14 
v -1.506148E-27 2.8 -2.887646E-14 
v 7.325 11.8 -4.163505E-13 
v 0.35 4.5 -4.713187E-14 
v 0.35 10.1 -4.713187E-14 
v -1.506148E-27 11.1 -2.887646E-14 
v 2.091643 11.8 -1.379731E-13 
v 5 11.8 -2.932777E-13 
v -1.506148E-27 12.65 -2.887646E-14 
v 1.195049 12.2 -8.218434E-14 
v 2.091643 12.2 -1.379731E-13 
v 1.195049 12.65 -8.218434E-14 
v 9.65 0 -5.033279E-13 
v 4.65 9.55 -2.73 
v 7.325 9.55 -2.73 
v 4.65 7.3 -5.46 
v 7.325 7.3 -5.46 
v 4.65 10.1 -2.73 
v 7.325 10.1125 -2.73 
v 4.654375 10.1125 -2.73 
v 4.65 10.1125 -2.73 
v 4.65 10.1125 -2.0475 
v 4.65 5.6125 -8.190001 
v 7.325 5.6125 -8.190001 
v 1.695049 12.2 -7.5 
v 1.195049 12.2 -7.5 
v 1.695049 13.1 -7.5 
v 1.195049 12.65 -7.5 
v -3.938946E-13 12.65 -7.5 
v -3.938946E-13 13.1 -7.5 
v -2.607917E-13 12.65 -5 
v 1.195049 12.65 -5 
v -2.607917E-13 13.1 -5 
v 1.695049 13.1 -5 
v 1.695049 12.2 -5 
v 1.195049 12.2 -5 
v -5.215833E-13 2.086775E-15 -10 
v 9.65 2.502232E-15 -10 
v -5.215833E-13 2.8 -10 
v 0.35 4.5 -10 
v 0.35 10.1 -10 
v 4.65 10.1 -10 
v -5.215833E-13 11.1 -10 
v 5 11.1 -10 
v 2.091643 11.8 -10 
v -5.215833E-13 13.1 -10 
v 1.695049 12.2 -10 
v 1.695049 13.1 -10 
v 2.091643 12.2 -10 
v 5 11.8 -10 
v 7.325 2.244444 -2.73 
v -1.33103E-13 12.65 -2.5 
v 1.195049 12.65 -2.5 
v 9.65 2.244444 -2.73 
v 1.195049 12.2 -2.5 
v 1.695049 12.2 -2.5 
v 1.695049 13.1 -2.5 
v -1.33103E-13 13.1 -2.5 

vn 0 1 0
vn -5.215833E-14 0 -1
vn 5.215833E-14 0 1
vn 1 0 -5.215833E-14
vn -0.9438583 -0.3303504 4.923007E-14
vn -1 0 5.215833E-14
vn -0.9794571 0.2016529 5.108685E-14
vn 0 -1 0
vn 0.9438583 -0.3303504 -4.923007E-14

vt 18.30709 16.12205
vt 18.30709 18.80906
vt 28.83858 16.12205
vt 28.83858 18.80906
vt -28.83858 44.24213
vt -28.83858 46.45669
vt -19.68504 44.24213
vt -19.68504 46.45669
vt 28.83858 21.49606
vt 28.83858 32.24409
vt 37.99213 21.49606
vt 37.99213 39.37008
vt 18.30709 32.24409
vt 18.30709 39.37008
vt 37.99213 4.418198
vt 28.83858 4.418198
vt 37.99213 6.627296
vt 28.83858 6.627296
vt 37.99213 17.67279
vt 28.83858 17.67279
vt 37.99213 19.88189
vt 28.83858 19.88189
vt 37.99213 2.209099
vt 28.83858 2.209099
vt 37.99213 8.836395
vt 28.83858 8.836395
vt 28.83858 2.687008
vt 28.83858 5.374016
vt 37.99213 2.687008
vt 37.99213 5.374016
vt 37.99213 11.04549
vt 28.83858 11.04549
vt 37.99213 13.25459
vt 28.83858 13.25459
vt 28.83858 10.74803
vt 28.83858 13.43504
vt 37.99213 10.74803
vt 37.99213 13.43504
vt 28.83858 2.168139E-14
vt 37.99213 3.651039E-16
vt 28.83858 8.061024
vt 37.99213 8.061024
vt 37.99213 15.46369
vt 28.83858 15.46369
vt 37.99213 16.12205
vt 37.99213 18.80906
vt -18.30709 35.38386
vt -28.83858 35.38386
vt -18.30709 37.59843
vt -28.83858 37.59843
vt -18.30709 22.09646
vt -28.83858 22.09646
vt -18.30709 24.31102
vt -28.83858 24.31102
vt -18.30709 30.95473
vt -28.83858 30.95473
vt -18.30709 33.16929
vt -28.83858 33.16929
vt 18.30709 21.49606
vt 18.30709 13.43504
vt -28.83858 42.02756
vt -19.09941 42.02756
vt -19.68504 43.70079
vt -18.30709 26.52559
vt -28.83858 26.52559
vt -18.30709 28.74016
vt -28.83858 28.74016
vt 18.30709 26.87008
vt 18.30709 29.55709
vt 28.83858 26.87008
vt 28.83858 29.55709
vt 18.30709 24.18307
vt 28.83858 24.18307
vt -28.83858 39.81299
vt -18.32431 39.81299
vt 28.83858 8.21565E-15
vt -6.499311E-29 8.21565E-15
vt -6.499311E-29 11.02362
vt 28.83858 46.45669
vt 1.377953 17.71654
vt 1.377953 39.76378
vt -6.499311E-29 43.70079
vt 8.234817 46.45669
vt 19.68504 46.45669
vt -6.499311E-29 49.80315
vt 4.704919 48.0315
vt 8.234817 48.0315
vt 4.704919 49.80315
vt 37.99213 -6.070851E-27
vt 19.68504 2.687008
vt 19.68504 5.374016
vt 18.30709 10.74803
vt -18.30709 39.76378
vt 18.32431 8.061024
vt 18.32431 10.74803
vt 18.30709 8.061024
vt -18.30709 19.88189
vt -28.83858 19.88189
vt 6.673423 48.0315
vt 6.673423 51.5748
vt -1.355231E-13 49.80315
vt -1.355231E-13 51.5748
vt 0 49.80315
vt -4.704919 49.80315
vt 0 51.5748
vt -6.673423 51.5748
vt -6.673423 48.0315
vt -4.704919 48.0315
vt -1.065814E-14 29.52756
vt 4.704919 29.52756
vt 0 19.68504
vt 4.704919 19.68504
vt 5.843839E-15 -2.632375E-14
vt -37.99213 -2.468809E-14
vt 5.843839E-15 11.02362
vt -37.99213 19.88189
vt -1.377953 17.71654
vt -1.377953 39.76378
vt 5.843839E-15 43.70079
vt -8.234817 46.45669
vt 5.843839E-15 51.5748
vt -8.234817 48.0315
vt 18.80906 17.67279
vt 18.80906 30.95473
vt 21.49606 17.67279
vt 21.49606 19.88189
vt 21.49606 30.95473
vt 21.49606 28.74016
vt 18.80906 33.16929
vt 16.12205 33.16929
vt 18.80906 15.46369
vt 16.12205 15.46369
vt 16.12205 35.38386
vt 13.43504 35.38386
vt 16.12205 13.25459
vt 13.43504 13.25459
vt 13.43504 37.59843
vt 10.74803 37.59843
vt 13.43504 11.04549
vt 10.74803 11.04549
vt 10.74803 39.81299
vt 8.061024 39.81299
vt 10.74803 8.836395
vt 8.061024 8.836395
vt 8.061024 42.02756
vt 5.374016 42.02756
vt 8.061024 6.627296
vt 5.374016 6.627296
vt 5.374016 44.24213
vt 2.687008 44.24213
vt 5.374016 4.418198
vt 2.687008 4.418198
vt 2.687008 46.45669
vt 1.60571E-13 46.45669
vt 2.687008 2.209099
vt 4.688411E-14 2.209099
vt 32.24409 19.88189
vt 24.18307 26.52559
vt 26.87008 24.31102
vt 29.55709 22.09646
vt 32.24409 22.09646
vt 29.55709 24.31102
vt 26.87008 26.52559
vt 24.18307 28.74016
vt 19.68504 48.0315
vt 19.68504 49.80315
vt 29.52756 48.0315
vt 29.52756 49.80315
vt -1.065814E-14 9.84252
vt 4.704919 9.84252
vt 0 1.136868E-13
vt 4.704919 7.81597E-14
vt 1.136868E-13 46.45669
vt 1.136868E-13 48.0315
vt 39.37008 46.45669
vt 39.37008 48.0315
vt 4.42646E-14 -4.214338E-14
vt 4.42646E-14 2.209099
vt 39.37008 -3.229208E-14
vt 39.37008 19.88189
vt 19.68504 1.278977E-13
vt 28.83858 1.350031E-13
vt 7.81597E-14 48.0315
vt 7.81597E-14 49.80315
vt 9.84252 48.0315
vt 9.84252 49.80315
vt -1.065814E-14 49.80315
vt -1.065814E-14 51.5748
vt -1.136868E-13 41.24735
vt -1.136868E-13 37.07617
vt -39.37008 41.24735
vt -39.37008 37.07617
vt -9.84252 51.5748
vt -9.84252 49.80315
vt -19.68504 51.5748
vt -19.68504 49.80315
vt -39.37008 43.70079
vt -1.136868E-13 43.70079
vt -1.136868E-13 49.80315
vt -29.52756 49.80315
vt -39.37008 51.5748
vt -29.52756 51.5748
vt -1.136868E-13 11.02362
vt -1.136868E-13 8.21565E-15
vt -39.37008 11.02362
vt -39.37008 8.21565E-15
vt -1.136868E-13 17.63045
vt -1.136868E-13 10.79716
vt -39.37008 17.63045
vt -39.37008 10.79716
vt 29.52756 51.5748
vt 39.37008 51.5748
vt 9.84252 51.5748
vt 19.68504 51.5748
vt 6.673423 9.84252
vt 6.673423 19.68504
vt 0 39.37008
vt 6.673423 29.52756
vt 6.673423 39.37008
vt 3.644936E-31 39.37008
vt 3.644936E-31 1.136868E-13
vt -37.99213 39.37008
vt -28.83858 1.350031E-13
vt -37.99213 1.71321E-31
vt 8.234817 1.136868E-13
vt 8.234817 39.37008
vt 8.061024 43.63127
vt 8.061024 45.97756
vt 10.74803 43.63127
vt 39.37008 47.75031
vt 5.374016 47.75031
vt 5.374016 45.97756
vt 39.37008 43.57913
vt 10.74803 43.57913
vt 5.374016 43.70079
vt 39.37008 43.70079
vt 19.09941 5.374016
vt 19.09941 8.061024
vt 39.37008 39.76378
vt 10.74803 39.76378
vt -1.136868E-13 39.76378
vt -1.136868E-13 17.71654
vt -39.37008 39.76378
vt -39.37008 17.71654
vt 8.234817 1.088847E-13
vt 19.68504 39.37008

usemtl wall
usemap wall

f 2/2/1 1/1/1 3/3/1
f 3/3/1 4/4/1 2/2/1
f 6/6/2 5/5/2 7/7/2
f 7/7/2 8/8/2 6/6/2
f 10/10/1 9/9/1 11/11/1
f 10/10/1 11/11/1 12/12/1
f 13/13/1 10/10/1 12/12/1
f 12/12/1 14/14/1 13/13/1
f 16/16/3 15/15/3 17/17/3
f 17/17/3 18/18/3 16/16/3
f 20/20/3 19/19/3 11/21/3
f 11/21/3 9/22/3 20/20/3
f 22/24/3 21/23/3 23/15/3
f 23/15/3 24/16/3 22/24/3
f 26/18/3 25/17/3 27/25/3
f 27/25/3 28/26/3 26/18/3
f 16/28/1 24/27/1 23/29/1
f 23/29/1 15/30/1 16/28/1
f 30/32/3 29/31/3 31/33/3
f 31/33/3 32/34/3 30/32/3
f 30/36/1 33/35/1 34/37/1
f 34/37/1 29/38/1 30/36/1
f 22/27/1 35/39/1 36/40/1
f 36/40/1 21/29/1 22/27/1
f 26/41/1 18/28/1 17/30/1
f 17/30/1 25/42/1 26/41/1
f 38/44/3 37/43/3 39/19/3
f 39/19/3 40/20/3 38/44/3
f 38/4/1 41/3/1 42/45/1
f 42/45/1 37/46/1 38/4/1
f 44/34/3 43/33/3 42/43/3
f 42/43/3 41/44/3 44/34/3
f 46/48/2 45/47/2 47/49/2
f 47/49/2 48/50/2 46/48/2
f 50/52/2 49/51/2 51/53/2
f 51/53/2 52/54/2 50/52/2
f 54/56/2 53/55/2 2/57/2
f 2/57/2 4/58/2 54/56/2
f 55/59/1 53/2/1 54/4/1
f 54/4/1 56/9/1 55/59/1
f 57/1/1 45/60/1 46/36/1
f 46/36/1 58/3/1 57/1/1
f 3/58/2 1/57/2 57/47/2
f 57/47/2 58/48/2 3/58/2
f 60/5/2 59/61/2 61/62/2
f 61/62/2 62/63/2 60/5/2
f 62/63/2 63/7/2 60/5/2
f 65/65/2 64/64/2 66/66/2
f 66/66/2 67/67/2 65/65/2
f 51/69/1 68/68/1 69/70/1
f 69/70/1 52/71/1 51/69/1
f 70/68/1 64/72/1 65/73/1
f 65/73/1 71/70/1 70/68/1
f 73/61/2 72/74/2 74/75/2
f 74/75/2 75/62/2 73/61/2
f 77/77/3 76/76/3 35/24/3
f 35/24/3 78/78/3 77/77/3
f 35/24/3 79/79/3 78/78/3
f 79/79/3 80/80/3 78/78/3
f 79/79/3 81/81/3 80/80/3
f 79/79/3 82/82/3 81/81/3
f 79/79/3 83/83/3 82/82/3
f 79/79/3 84/84/3 83/83/3
f 85/85/3 82/82/3 83/83/3
f 83/83/3 86/86/3 85/85/3
f 83/83/3 87/87/3 86/86/3
f 86/86/3 88/88/3 85/85/3
f 36/23/3 35/24/3 76/76/3
f 76/76/3 89/89/3 36/23/3
f 63/91/1 7/90/1 5/27/1
f 5/27/1 60/28/1 63/91/1
f 47/60/1 90/92/1 91/35/1
f 91/35/1 48/36/1 47/60/1
f 93/67/2 92/66/2 55/55/2
f 55/55/2 56/56/2 93/67/2
f 66/72/1 92/59/1 93/9/1
f 93/9/1 67/73/1 66/72/1
f 91/50/2 90/49/2 94/93/2
f 94/93/2 95/74/2 91/50/2
f 94/93/2 96/75/2 95/74/2
f 96/95/1 74/94/1 72/41/1
f 72/41/1 95/35/1 96/95/1
f 74/94/1 96/95/1 97/92/1
f 97/92/1 98/96/1 74/94/1
f 69/54/2 68/53/2 70/64/2
f 70/64/2 71/65/2 69/54/2
f 10/98/2 13/97/2 99/51/2
f 99/51/2 100/52/2 10/98/2
f 99/13/1 49/69/1 50/71/1
f 50/71/1 100/10/1 99/13/1
f 102/86/3 101/99/3 103/100/3
f 103/100/3 104/88/3 102/86/3
f 103/100/3 105/101/3 104/88/3
f 103/100/3 106/102/3 105/101/3
f 108/104/2 107/103/2 109/105/2
f 108/104/2 109/105/2 110/106/2
f 108/104/2 110/106/2 111/107/2
f 111/107/2 112/108/2 108/104/2
f 104/110/1 105/109/1 107/111/1
f 107/111/1 108/112/1 104/110/1
f 114/114/2 113/113/2 115/115/2
f 115/115/2 12/116/2 114/114/2
f 115/115/2 116/117/2 12/116/2
f 116/117/2 14/97/2 12/116/2
f 14/97/2 116/117/2 117/118/2
f 117/118/2 118/93/2 14/97/2
f 117/118/2 119/119/2 118/93/2
f 119/119/2 120/63/2 118/93/2
f 119/119/2 121/120/2 120/63/2
f 119/119/2 122/121/2 121/120/2
f 122/121/2 123/107/2 121/120/2
f 122/121/2 124/106/2 123/107/2
f 121/120/2 123/107/2 125/122/2
f 120/63/2 121/120/2 126/8/2
f 54/124/4 40/123/4 20/125/4
f 20/125/4 9/126/4 54/124/4
f 9/126/4 56/127/4 54/124/4
f 9/126/4 93/128/4 56/127/4
f 40/123/4 54/124/4 4/129/4
f 40/123/4 4/129/4 3/130/4
f 38/131/4 40/123/4 3/130/4
f 3/130/4 41/132/4 38/131/4
f 41/132/4 3/130/4 58/133/4
f 41/132/4 58/133/4 46/134/4
f 44/135/4 41/132/4 46/134/4
f 46/134/4 32/136/4 44/135/4
f 32/136/4 46/134/4 48/137/4
f 32/136/4 48/137/4 91/138/4
f 30/139/4 32/136/4 91/138/4
f 91/138/4 33/140/4 30/139/4
f 33/140/4 91/138/4 95/141/4
f 33/140/4 95/141/4 72/142/4
f 127/143/4 33/140/4 72/142/4
f 72/142/4 28/144/4 127/143/4
f 28/144/4 72/142/4 73/145/4
f 28/144/4 73/145/4 59/146/4
f 26/147/4 28/144/4 59/146/4
f 59/146/4 18/148/4 26/147/4
f 18/148/4 59/146/4 60/149/4
f 18/148/4 60/149/4 5/150/4
f 16/151/4 18/148/4 5/150/4
f 5/150/4 24/152/4 16/151/4
f 24/152/4 5/150/4 6/153/4
f 24/152/4 6/153/4 79/154/4
f 22/155/4 24/152/4 79/154/4
f 79/154/4 35/156/4 22/155/4
f 93/128/4 9/126/4 10/157/4
f 10/157/4 65/158/4 93/128/4
f 10/157/4 69/159/4 65/158/4
f 10/157/4 50/160/4 69/159/4
f 10/157/4 100/161/4 50/160/4
f 69/159/4 50/160/4 52/162/4
f 65/158/4 69/159/4 71/163/4
f 93/128/4 65/158/4 67/164/4
f 108/166/4 112/165/4 102/167/4
f 102/167/4 104/168/4 108/166/4
f 129/170/1 128/169/1 85/171/1
f 85/171/1 88/172/1 129/170/1
f 127/35/1 28/41/1 27/42/1
f 27/42/1 130/37/1 127/35/1
f 87/174/4 83/173/4 121/175/4
f 121/175/4 125/176/4 87/174/4
f 36/178/4 89/177/4 114/179/4
f 114/179/4 21/155/4 36/178/4
f 114/179/4 23/152/4 21/155/4
f 114/179/4 15/151/4 23/152/4
f 114/179/4 17/148/4 15/151/4
f 114/179/4 25/147/4 17/148/4
f 114/179/4 27/144/4 25/147/4
f 114/179/4 130/143/4 27/144/4
f 114/179/4 34/140/4 130/143/4
f 114/179/4 29/139/4 34/140/4
f 114/179/4 31/136/4 29/139/4
f 114/179/4 43/135/4 31/136/4
f 114/179/4 42/132/4 43/135/4
f 114/179/4 37/131/4 42/132/4
f 114/179/4 39/123/4 37/131/4
f 114/179/4 19/125/4 39/123/4
f 114/179/4 11/126/4 19/125/4
f 114/179/4 12/180/4 11/126/4
f 8/90/1 84/181/1 79/182/1
f 79/182/1 6/27/1 8/90/1
f 88/184/4 86/183/4 131/185/4
f 131/185/4 129/186/4 88/184/4
f 131/86/3 132/99/3 133/100/3
f 133/100/3 129/88/3 131/86/3
f 133/100/3 128/187/3 129/88/3
f 133/100/3 134/188/3 128/187/3
f 81/190/5 82/189/5 119/191/5
f 119/191/5 117/192/5 81/190/5
f 128/194/6 134/193/6 109/195/6
f 128/194/6 109/195/6 107/196/6
f 128/194/6 107/196/6 119/197/6
f 128/194/6 119/197/6 82/198/6
f 82/198/6 85/199/6 128/194/6
f 107/196/6 105/200/6 119/197/6
f 105/200/6 122/201/6 119/197/6
f 105/200/6 106/202/6 122/201/6
f 44/3/1 32/36/1 31/38/1
f 31/38/1 43/45/1 44/3/1
f 77/204/6 78/203/6 115/205/6
f 115/205/6 113/206/6 77/204/6
f 78/208/7 80/207/7 116/209/7
f 116/209/7 115/210/7 78/208/7
f 127/26/3 130/25/3 34/31/3
f 34/31/3 33/32/3 127/26/3
f 103/211/4 101/167/4 123/176/4
f 123/176/4 124/212/4 103/211/4
f 133/213/4 132/185/4 111/165/4
f 111/165/4 110/214/4 133/213/4
f 109/111/1 134/169/1 133/215/1
f 133/215/1 110/216/1 109/111/1
f 122/217/1 106/109/1 103/218/1
f 103/218/1 124/219/1 122/217/1
f 19/11/1 20/9/1 40/4/1
f 40/4/1 39/46/1 19/11/1
f 77/221/8 113/220/8 114/222/8
f 114/222/8 76/223/8 77/221/8
f 114/222/8 89/224/8 76/223/8
f 131/170/1 86/172/1 87/225/1
f 87/225/1 132/215/1 131/170/1
f 87/225/1 111/216/1 132/215/1
f 87/225/1 123/219/1 111/216/1
f 87/225/1 125/226/1 123/219/1
f 111/216/1 123/219/1 101/218/1
f 112/112/1 111/216/1 101/218/1
f 101/218/1 102/110/1 112/112/1
f 75/228/9 74/227/9 96/229/9
f 75/228/9 96/229/9 120/230/9
f 75/228/9 120/230/9 62/231/9
f 62/231/9 61/232/9 75/228/9
f 96/229/9 118/233/9 120/230/9
f 96/229/9 94/234/9 118/233/9
f 63/149/4 62/235/4 120/236/4
f 120/236/4 126/175/4 63/149/4
f 63/149/4 126/175/4 8/153/4
f 8/153/4 7/150/4 63/149/4
f 75/238/1 61/237/1 59/28/1
f 59/28/1 73/41/1 75/238/1

usemtl wallDark
usemap wallDark

f 47/137/4 45/134/4 57/133/4
f 47/137/4 57/133/4 118/239/4
f 47/137/4 118/239/4 94/240/4
f 94/240/4 90/138/4 47/137/4
f 57/133/4 2/129/4 118/239/4
f 57/133/4 1/130/4 2/129/4
f 2/129/4 55/127/4 118/239/4
f 2/129/4 53/124/4 55/127/4
f 55/127/4 66/164/4 118/239/4
f 55/127/4 92/128/4 66/164/4
f 66/164/4 70/163/4 118/239/4
f 66/164/4 64/158/4 70/163/4
f 70/163/4 51/162/4 118/239/4
f 70/163/4 68/159/4 51/162/4
f 51/162/4 99/161/4 118/239/4
f 51/162/4 49/160/4 99/161/4
f 99/161/4 14/180/4 118/239/4
f 99/161/4 13/157/4 14/180/4
f 80/242/6 81/241/6 117/243/6
f 117/243/6 116/244/6 80/242/6
f 121/226/1 83/245/1 84/181/1
f 84/181/1 126/246/1 121/226/1
f 84/181/1 8/90/1 126/246/1
