# Exported using Kenney Suite 1.1 

mtllib wallNarrowCorner.mtl 

g wallNarrowCorner

v -2.607917E-13 0 -5 
v 0 0 0 
v 5 0 -5 
v 5 0 -2.607917E-13 
v 5 11.8 -5 
v 5 10.1 -4.65 
v 5 11.8 -2.091643 
v 5 4.5 -4.65 
v 5 11.1 -5 
v 5 12.2 -1.045822 
v 5 10.1 -0.35 
v 5 4.5 -0.35 
v 5 2.8 -2.607917E-13 
v 5 2.8 -5 
v 5 12.2 -2.091643 
v 5 12.65 -1.045822 
v 5 12.65 -5.206797E-13 
v 5 11.1 -2.607917E-13 
v 0 2.8 0 
v -2.607917E-13 2.8 -5 
v 0.35 4.5 -5 
v 4.65 4.5 -5 
v 0.35 10.1 -5 
v 4.65 10.1 -5 
v -2.607917E-13 11.1 -5 
v 2.091643 11.8 -5 
v 9.012261E-16 12.65 -5 
v 1.195049 12.2 -5 
v 1.195049 12.65 -5 
v 2.091643 12.2 -5 
v 0.35 4.5 -0.35 
v 0 11.1 0 
v 0.35 10.1 -0.35 
v 1.245297E-12 13.1 -1.458261E-12 
v 4.020138E-13 12.65 -2.5 
v 8.441845E-13 13.1 -2.5 
v 2.5 12.65 -7.783113E-13 
v 2.5 13.1 -1.19702E-12 
v 2.091643 11.8 -2.091643 
v 2.091643 12.2 -2.091643 
v 2.5 12.2 -1.045822 
v 2.5 12.2 -1.695049 
v 1.695049 12.2 -1.695049 
v 1.695049 12.2 -2.5 
v 1.195049 12.2 -2.5 
v 2.5 12.65 -1.045822 
v 1.195049 12.65 -2.5 
v 1.695049 13.1 -2.5 
v 1.695049 13.1 -1.695049 
v 2.5 13.1 -1.695049 

vn 0 -1 0
vn 1 0 -5.215833E-14
vn -1 0 5.215833E-14
vn -5.215833E-14 0 -1
vn -0.9794571 0.2016529 5.108685E-14
vn 0.6997307 0.1440622 -0.6997307
vn 0.7071068 0 -0.7071068
vn 0.6863982 -0.2402394 -0.6863982
vn -0.9438583 -0.3303504 4.923007E-14
vn 4.923007E-14 -0.3303504 0.9438583
vn 5.215833E-14 0 1
vn 0 1 0
vn 5.108685E-14 0.2016529 0.9794571

vt 0 19.68504
vt 0 0
vt -19.68504 19.68504
vt -19.68504 0
vt 19.68504 46.45669
vt 18.30709 39.76378
vt 8.234817 46.45669
vt 18.30709 17.71654
vt 19.68504 43.70079
vt 19.68504 1.675281E-12
vt 4.117408 48.0315
vt 1.377953 39.76378
vt 1.377953 17.71654
vt 3.74282E-12 11.02362
vt 3.74282E-12 1.675281E-12
vt 19.68504 11.02362
vt 8.234817 48.0315
vt 4.117408 49.80315
vt 4.766002E-12 49.80315
vt 3.74282E-12 43.70079
vt 0 11.02362
vt -19.68504 11.02362
vt 2.058188E-13 1.179071E-13
vt -19.68504 1.179071E-13
vt 2.058188E-13 11.02362
vt -1.377953 17.71654
vt -18.30709 17.71654
vt -1.377953 39.76378
vt -18.30709 39.76378
vt 2.058188E-13 43.70079
vt -19.68504 43.70079
vt -8.234817 46.45669
vt -8.244682E-13 49.80315
vt -4.704919 48.0315
vt -4.704919 49.80315
vt -8.234817 48.0315
vt -19.68504 46.45669
vt 0 10.79716
vt -19.68504 10.79716
vt -1.377953 17.63045
vt -19.68504 17.63045
vt 9.162449E-12 6.898105
vt -0.9743598 13.66157
vt 0.9743598 13.66157
vt -0.9743598 17.71654
vt -0.9743598 39.76378
vt 0.9743598 17.71654
vt 0.9743598 39.76378
vt 0.9743598 45.05315
vt -0.9743598 45.05315
vt 4.444445E-12 49.10894
vt 0 41.24735
vt -1.377953 37.07617
vt -19.68504 41.24735
vt -19.68504 37.07617
vt 1.377953 37.07617
vt 19.68504 37.07617
vt 19.68504 41.24735
vt -5.741185E-12 51.5748
vt -9.84252 49.80315
vt -9.84252 51.5748
vt 0 43.70079
vt -19.68504 49.80315
vt 19.68504 49.80315
vt 9.84252 49.80315
vt 4.902745E-12 51.5748
vt 9.84252 51.5748
vt -19.68504 48.0315
vt 19.68504 48.0315
vt 9.84252 4.117408
vt 9.84252 6.673423
vt 19.68504 4.117408
vt 19.68504 8.234817
vt 8.234817 8.234817
vt 6.673423 6.673423
vt 6.673423 9.84252
vt 8.234817 19.68504
vt 4.704919 9.84252
vt 4.704919 19.68504
vt 9.84252 -2.89052E-11
vt 19.68504 -3.043286E-11
vt -2.552002E-11 19.68504
vt -2.445421E-11 9.84252
vt -4.669292E-11 9.84252
vt -4.562711E-11 -4.19389E-11
vt 9.84252 -4.348078E-11
vt 6.673423 48.0315
vt 6.673423 51.5748
vt 5.382402E-12 51.5748
vt 3.733942E-12 49.80315
vt -9.84252 48.0315
vt -6.673423 48.0315
vt -6.673423 51.5748
vt 9.84252 48.0315
vt -3.051329E-12 49.80315
vt -4.792159E-12 51.5748
vt 19.68504 10.79716
vt -6.162976E-33 10.79716
vt 19.68504 17.63045
vt 1.377953 17.63045
vt 19.68504 0
vt -19.68504 39.76378
vt -19.68504 17.71654
vt 19.68504 17.71654
vt 19.68504 39.76378
vt 19.68504 19.68504

usemtl wall
usemap wall

f 2/2/1 1/1/1 3/3/1
f 3/3/1 4/4/1 2/2/1
f 6/6/2 5/5/2 7/7/2
f 7/7/2 8/8/2 6/6/2
f 6/6/2 9/9/2 5/5/2
f 3/10/2 8/8/2 7/7/2
f 3/10/2 7/7/2 10/11/2
f 3/10/2 10/11/2 11/12/2
f 3/10/2 11/12/2 12/13/2
f 3/10/2 12/13/2 13/14/2
f 13/14/2 4/15/2 3/10/2
f 3/10/2 14/16/2 8/8/2
f 10/11/2 7/7/2 15/17/2
f 11/12/2 10/11/2 16/18/2
f 11/12/2 16/18/2 17/19/2
f 17/19/2 18/20/2 11/12/2
f 2/2/3 19/21/3 20/22/3
f 20/22/3 1/4/3 2/2/3
f 3/24/4 1/23/4 20/25/4
f 20/25/4 14/22/4 3/24/4
f 20/25/4 21/26/4 14/22/4
f 21/26/4 22/27/4 14/22/4
f 21/26/4 23/28/4 22/27/4
f 23/28/4 24/29/4 22/27/4
f 23/28/4 25/30/4 24/29/4
f 25/30/4 9/31/4 24/29/4
f 25/30/4 26/32/4 9/31/4
f 25/30/4 27/33/4 26/32/4
f 27/33/4 28/34/4 26/32/4
f 27/33/4 29/35/4 28/34/4
f 26/32/4 28/34/4 30/36/4
f 9/31/4 26/32/4 5/37/4
f 20/39/5 19/38/5 31/40/5
f 31/40/5 21/41/5 20/39/5
f 8/43/6 14/42/6 22/44/6
f 6/46/7 8/45/7 22/47/7
f 22/47/7 24/48/7 6/46/7
f 6/50/8 24/49/8 9/51/8
f 33/53/9 32/52/9 25/54/9
f 25/54/9 23/55/9 33/53/9
f 32/52/10 33/56/10 11/57/10
f 11/57/10 18/58/10 32/52/10
f 35/60/3 34/59/3 36/61/3
f 34/59/3 35/60/3 25/31/3
f 25/31/3 32/62/3 34/59/3
f 35/60/3 27/63/3 25/31/3
f 32/62/11 18/9/11 17/64/11
f 17/64/11 37/65/11 32/62/11
f 37/65/11 34/66/11 32/62/11
f 37/65/11 38/67/11 34/66/11
f 7/37/4 39/32/4 40/36/4
f 40/36/4 15/68/4 7/37/4
f 40/17/2 39/7/2 26/5/2
f 26/5/2 30/69/2 40/17/2
f 42/71/12 41/70/12 10/72/12
f 42/71/12 10/72/12 15/73/12
f 42/71/12 15/73/12 40/74/12
f 43/75/12 42/71/12 40/74/12
f 40/74/12 44/76/12 43/75/12
f 44/76/12 40/74/12 30/77/12
f 45/78/12 44/76/12 30/77/12
f 30/77/12 28/79/12 45/78/12
f 46/70/12 37/80/12 17/81/12
f 17/81/12 16/72/12 46/70/12
f 29/79/12 27/82/12 35/83/12
f 35/83/12 47/78/12 29/79/12
f 48/76/12 36/84/12 34/85/12
f 34/85/12 49/75/12 48/76/12
f 34/85/12 38/86/12 49/75/12
f 38/86/12 50/71/12 49/75/12
f 46/18/2 41/11/2 42/87/2
f 46/18/2 42/87/2 50/88/2
f 46/18/2 50/88/2 38/89/2
f 38/89/2 37/90/2 46/18/2
f 16/63/4 10/68/4 41/91/4
f 41/91/4 46/60/4 16/63/4
f 42/91/4 43/92/4 49/93/4
f 49/93/4 50/61/4 42/91/4
f 49/88/2 43/87/2 44/94/2
f 44/94/2 48/67/2 49/88/2
f 48/93/4 44/92/4 45/34/4
f 45/34/4 47/35/4 48/93/4
f 47/35/4 35/95/4 48/93/4
f 35/95/4 36/96/4 48/93/4
f 47/65/2 45/94/2 28/69/2
f 28/69/2 29/64/2 47/65/2
f 19/98/13 13/97/13 12/99/13
f 12/99/13 31/100/13 19/98/13
f 2/2/11 4/101/11 13/16/11
f 13/16/11 19/21/11 2/2/11

usemtl wallDark
usemap wallDark

f 31/26/3 33/28/3 23/102/3
f 23/102/3 21/103/3 31/26/3
f 33/12/11 31/13/11 12/104/11
f 12/104/11 11/105/11 33/12/11
f 26/77/12 39/74/12 7/73/12
f 7/73/12 5/106/12 26/77/12
