# Exported using Kenney Suite 1.1 

mtllib wallToNarrow.mtl 

g wallToNarrow

v 0 2.8 0 
v 0 0 0 
v -5.251928E-13 2.8 -10 
v -5.251928E-13 -5.857861E-17 -10 
v 10 0 -5.215833E-13 
v 10 2.8 -5.215833E-13 
v 10 -7.328608E-16 -10 
v 10 2.8 -10 
v 9.65 4.5 -5.033279E-13 
v 0.35 4.5 -1.825542E-14 
v 9.65 10.1 -5.033279E-13 
v 0.35 10.1 -1.825542E-14 
v 10 11.1 -5.215833E-13 
v 0 11.1 0 
v 7.908356 11.8 -4.088771E-13 
v 10 12.65 -5.215833E-13 
v 8.804951 12.2 -4.466181E-13 
v 8.804951 12.65 -4.466181E-13 
v 7.908356 12.2 -4.088771E-13 
v 2.091643 11.8 -1.036823E-13 
v 0 12.65 0 
v 1.195049 12.2 -5.15031E-14 
v 2.091643 12.2 -1.036823E-13 
v 1.195049 12.65 -5.15031E-14 
v 0.35 4.5 -10 
v 9.65 4.5 -9.65 
v 9.65 10.1 -9.65 
v 10 11.1 -9.65 
v -5.251928E-13 11.1 -10 
v 0.35 10.1 -10 
v -1.303958E-13 13.1 -2.5 
v -1.303958E-13 12.65 -2.5 
v -2.607917E-13 13.1 -5 
v -2.607917E-13 12.65 -5 
v -3.911875E-13 12.65 -7.5 
v -5.251928E-13 13.1 -10 
v -3.911875E-13 13.1 -7.5 
v 10 12.65 -2.5 
v 10 13.1 -2.5 
v 10 12.65 -5 
v 10 12.65 -7.5 
v 10 13.1 -7.5 
v 10 13.1 -9.65 
v 10 13.1 -5 
v 8.304951 13.1 -7.5 
v 8.304951 13.1 -10 
v 9.65 13.1 -10 
v 1.195049 12.2 -2.5 
v 1.695049 12.2 -2.5 
v 1.695049 12.2 -5 
v 1.695049 12.2 -7.5 
v 1.695049 12.2 -10 
v 2.091643 12.2 -10 
v 1.195049 12.2 -7.5 
v 1.195049 12.2 -5 
v 8.304951 12.2 -7.5 
v 8.304951 12.65 -8.804951 
v 8.304951 12.65 -10 
v 8.304951 12.2 -8.804951 
v 1.695049 13.1 -7.5 
v 1.695049 13.1 -10 
v 1.695049 13.1 -2.5 
v 1.695049 13.1 -5 
v 8.304951 13.1 -2.5 
v 8.304951 12.2 -2.5 
v 8.304951 13.1 -5 
v 8.304951 12.2 -5 
v 8.804951 12.65 -5 
v 8.804951 12.65 -7.5 
v 8.804951 12.65 -2.5 
v 1.195049 12.65 -5 
v 1.195049 12.65 -7.5 
v 1.195049 12.65 -2.5 
v 8.804951 12.2 -5 
v 8.804951 12.2 -7.5 
v 8.804951 12.2 -2.5 
v 7.908356 12.2 -8.15 
v 7.908356 11.8 -8.15 
v 2.091643 11.8 -10 
v 5 2.8 -10 
v 4.65 4.5 -9.65 
v 4.65 4.5 -10 
v 4.65 10.1 -10 
v 5 11.1 -10 
v 5 11.8 -10 
v 9.65 11.1 -10 
v 5.65495 12.2 -10 
v 5 12.2 -10 
v 5.65495 12.65 -10 
v 4.65 10.1 -9.65 
v 5 12.2 -8.15 
v 5 11.8 -8.15 
v 5.65495 12.65 -8.804951 
v 5.65495 12.2 -8.804951 

vn -1 0 5.215833E-14
vn 1 0 -5.215833E-14
vn 5.215833E-14 0 1
vn -0.9794571 0.2016529 5.108685E-14
vn 0.9794571 0.2016529 -5.108685E-14
vn 0.9438583 -0.3303504 -4.923007E-14
vn -0.9438583 -0.3303504 4.923007E-14
vn 0 1 0
vn -5.215833E-14 0 -1
vn 0 -1 0
vn -5.108685E-14 0.2016529 -0.9794571
vn -4.923007E-14 -0.3303504 -0.9438583
vn 0.7071068 0 -0.7071068
vn 0.6863982 -0.2402394 -0.6863982

vt 0 11.02362
vt 0 0
vt -39.37008 11.02362
vt -39.37008 -2.306245E-16
vt 39.37008 -2.885279E-15
vt 39.37008 11.02362
vt 39.37008 0
vt 37.99213 17.71654
vt 1.377953 17.71654
vt 37.99213 39.76378
vt 1.377953 39.76378
vt 39.37008 43.70079
vt 0 43.70079
vt 31.13526 46.45669
vt 39.37008 49.80315
vt 34.66516 48.0315
vt 34.66516 49.80315
vt 31.13526 48.0315
vt 8.234817 46.45669
vt 0 49.80315
vt 4.704919 48.0315
vt 8.234817 48.0315
vt 4.704919 49.80315
vt -4.470517E-18 17.63045
vt 0 10.79716
vt -39.37008 17.63045
vt -39.37008 10.79716
vt 2.529456E-17 2.858073
vt 2.440925E-17 9.691362
vt 39.37008 2.858073
vt 37.99213 9.691362
vt 5.651262E-17 50.08209
vt 5.85623E-17 54.25328
vt 37.99213 50.08209
vt 37.99213 54.25328
vt -3.081488E-33 41.24735
vt 2.451574E-18 37.07617
vt -39.37008 41.24735
vt -39.37008 37.07617
vt -9.84252 51.5748
vt -9.84252 49.80315
vt -19.68504 51.5748
vt -19.68504 49.80315
vt -39.37008 43.70079
vt -29.52756 49.80315
vt -39.37008 51.5748
vt -29.52756 51.5748
vt 37.99213 43.70079
vt 9.84252 49.80315
vt 9.84252 51.5748
vt 19.68504 49.80315
vt 29.52756 49.80315
vt 29.52756 51.5748
vt 37.99213 51.5748
vt 19.68504 51.5748
vt 32.69666 29.52756
vt 32.69666 39.37008
vt 39.37008 29.52756
vt 37.99213 39.37008
vt 39.37008 37.99213
vt 4.704919 -4.263256E-14
vt 4.704919 9.84252
vt 8.234817 -2.131628E-14
vt 6.673423 9.84252
vt 6.673423 19.68504
vt 6.673423 29.52756
vt 6.673423 39.37008
vt 8.234817 39.37008
vt 4.704919 29.52756
vt 4.704919 19.68504
vt -29.52756 48.0315
vt -34.66516 49.80315
vt -39.37008 49.80315
vt -34.66516 48.0315
vt 29.52756 48.0315
vt 39.37008 48.0315
vt 39.37008 51.5748
vt 9.84252 48.0315
vt 19.68504 48.0315
vt 0 9.84252
vt 0 19.68504
vt -1.421085E-14 39.37008
vt 0 29.52756
vt -9.84252 48.0315
vt -19.68504 48.0315
vt 32.69666 9.84252
vt 32.69666 19.68504
vt 39.37008 9.84252
vt 39.37008 19.68504
vt 34.66516 19.68504
vt 34.66516 29.52756
vt 34.66516 -4.973799E-14
vt 34.66516 9.84252
vt -4.263256E-14 48.0315
vt -4.263256E-14 49.80315
vt 6.673423 48.0315
vt 6.673423 51.5748
vt 0 51.5748
vt -1.248649E-13 49.80315
vt -1.248649E-13 51.5748
vt -4.704919 49.80315
vt -6.673423 51.5748
vt -6.673423 48.0315
vt -4.704919 48.0315
vt -32.69666 48.0315
vt -32.69666 51.5748
vt 32.69666 51.5748
vt 32.69666 48.0315
vt 4.973799E-14 49.80315
vt 4.973799E-14 48.0315
vt 1.421085E-14 48.0315
vt 1.421085E-14 46.45669
vt -32.08661 48.0315
vt -32.08661 46.45669
vt -2.131628E-14 46.45669
vt -2.131628E-14 48.0315
vt 39.37008 46.45669
vt 1.421085E-14 39.37008
vt -39.37008 39.37008
vt -39.37008 -3.277579E-32
vt 39.37008 6.827619
vt 37.99213 13.66091
vt 39.37008 13.66091
vt -39.37008 -1.500097E-14
vt 2.418437E-14 -1.234631E-14
vt 2.418437E-14 11.02362
vt -19.68504 11.02362
vt -1.377953 17.71654
vt -18.30709 17.71654
vt -1.377953 39.76378
vt -18.30709 39.76378
vt 2.418437E-14 43.70079
vt -19.68504 43.70079
vt -8.234817 46.45669
vt 2.418437E-14 51.5748
vt -8.234817 48.0315
vt -19.68504 46.45669
vt -37.99213 43.70079
vt -32.69666 49.80315
vt -37.99213 51.5748
vt -22.26358 48.0315
vt -22.26358 49.80315
vt -19.68504 2.858073
vt -39.37008 2.858073
vt -18.30709 9.691362
vt -37.99213 9.691362
vt 39.37008 43.57913
vt 37.99213 43.57913
vt 39.37008 47.75031
vt -18.30709 50.08209
vt -37.99213 50.08209
vt -19.68504 54.25328
vt -37.99213 54.25328
vt -39.37008 48.0315
vt -39.37008 46.45669
vt 19.68504 46.45669
vt 22.26358 34.66516
vt 22.26358 39.37008
vt 32.69666 34.66516
vt 22.26358 48.0315
vt 32.69666 49.80315
vt 22.26358 49.80315
vt 31.13526 32.08661
vt 31.13526 -1.421085E-14
vt 19.68504 32.08661
vt 19.68504 39.37008
vt -0.9743598 51.5748
vt 0.9743598 51.5748
vt -0.9743598 43.70079
vt 0.9743598 43.70079
vt 2.557954E-13 51.50706
vt -0.9743598 55.56285
vt 0.9743598 55.56285
vt 0 39.76378
vt 0 17.71654
vt -39.37008 39.76378
vt -39.37008 17.71654
vt 39.37008 17.71654
vt 39.37008 39.76378
vt -37.99213 17.71654
vt -37.99213 39.76378

usemtl wall
usemap wall

f 2/2/1 1/1/1 3/3/1
f 3/3/1 4/4/1 2/2/1
f 6/1/2 5/2/2 7/5/2
f 7/5/2 8/6/2 6/1/2
f 2/2/3 5/7/3 6/6/3
f 6/6/3 1/1/3 2/2/3
f 6/6/3 9/8/3 1/1/3
f 9/8/3 10/9/3 1/1/3
f 9/8/3 11/10/3 10/9/3
f 11/10/3 12/11/3 10/9/3
f 11/10/3 13/12/3 12/11/3
f 13/12/3 14/13/3 12/11/3
f 13/12/3 15/14/3 14/13/3
f 13/12/3 16/15/3 15/14/3
f 16/15/3 17/16/3 15/14/3
f 16/15/3 18/17/3 17/16/3
f 15/14/3 17/16/3 19/18/3
f 14/13/3 15/14/3 20/19/3
f 20/19/3 21/20/3 14/13/3
f 20/19/3 22/21/3 21/20/3
f 20/19/3 23/22/3 22/21/3
f 22/21/3 24/23/3 21/20/3
f 1/25/4 10/24/4 25/26/4
f 25/26/4 3/27/4 1/25/4
f 9/29/5 6/28/5 8/30/5
f 8/30/5 26/31/5 9/29/5
f 13/33/6 11/32/6 27/34/6
f 27/34/6 28/35/6 13/33/6
f 12/37/7 14/36/7 29/38/7
f 29/38/7 30/39/7 12/37/7
f 32/41/1 31/40/1 33/42/1
f 32/41/1 33/42/1 34/43/1
f 32/41/1 34/43/1 29/44/1
f 32/41/1 29/44/1 14/13/1
f 14/13/1 21/20/1 32/41/1
f 34/43/1 35/45/1 29/44/1
f 35/45/1 36/46/1 29/44/1
f 35/45/1 37/47/1 36/46/1
f 16/20/2 13/13/2 28/48/2
f 28/48/2 38/49/2 16/20/2
f 28/48/2 39/50/2 38/49/2
f 28/48/2 40/51/2 39/50/2
f 28/48/2 41/52/2 40/51/2
f 28/48/2 42/53/2 41/52/2
f 28/48/2 43/54/2 42/53/2
f 39/50/2 40/51/2 44/55/2
f 46/57/8 45/56/8 42/58/8
f 42/58/8 47/59/8 46/57/8
f 42/58/8 43/60/8 47/59/8
f 48/62/8 22/61/8 23/63/8
f 23/63/8 49/64/8 48/62/8
f 23/63/8 50/65/8 49/64/8
f 23/63/8 51/66/8 50/65/8
f 23/63/8 52/67/8 51/66/8
f 23/63/8 53/68/8 52/67/8
f 50/65/8 51/66/8 54/69/8
f 54/69/8 55/70/8 50/65/8
f 56/71/1 45/47/1 46/46/1
f 46/46/1 57/72/1 56/71/1
f 46/46/1 58/73/1 57/72/1
f 56/71/1 57/72/1 59/74/1
f 60/53/2 51/75/2 52/76/2
f 52/76/2 61/77/2 60/53/2
f 62/50/2 49/78/2 50/79/2
f 50/79/2 63/55/2 62/50/2
f 33/81/8 31/80/8 62/64/8
f 62/64/8 63/65/8 33/81/8
f 61/67/8 36/82/8 37/83/8
f 37/83/8 60/66/8 61/67/8
f 65/84/1 64/40/1 66/42/1
f 66/42/1 67/85/1 65/84/1
f 66/87/8 64/86/8 39/88/8
f 39/88/8 44/89/8 66/87/8
f 69/91/8 68/90/8 40/89/8
f 40/89/8 41/58/8 69/91/8
f 70/93/8 18/92/8 16/7/8
f 16/7/8 38/88/8 70/93/8
f 35/83/8 34/81/8 71/70/8
f 71/70/8 72/69/8 35/83/8
f 32/80/8 21/2/8 24/61/8
f 24/61/8 73/62/8 32/80/8
f 24/95/2 22/94/2 48/78/2
f 48/78/2 73/49/2 24/95/2
f 48/21/3 49/96/3 62/97/3
f 62/97/3 73/23/3 48/21/3
f 62/97/3 32/20/3 73/23/3
f 62/97/3 31/98/3 32/20/3
f 71/51/2 55/79/2 54/75/2
f 54/75/2 72/52/2 71/51/2
f 54/21/3 51/96/3 60/97/3
f 60/97/3 72/23/3 54/21/3
f 60/97/3 35/99/3 72/23/3
f 60/97/3 37/100/3 35/99/3
f 71/101/9 34/20/9 33/98/9
f 71/101/9 33/98/9 63/102/9
f 71/101/9 63/102/9 50/103/9
f 50/103/9 55/104/9 71/101/9
f 74/85/1 68/43/1 69/45/1
f 69/45/1 75/71/1 74/85/1
f 74/74/9 67/105/9 66/106/9
f 66/106/9 68/72/9 74/74/9
f 66/106/9 40/73/9 68/72/9
f 66/106/9 44/46/9 40/73/9
f 69/17/3 41/15/3 42/77/3
f 69/17/3 42/77/3 45/107/3
f 69/17/3 45/107/3 56/108/3
f 56/108/3 75/16/3 69/17/3
f 17/110/1 18/109/1 70/41/1
f 70/41/1 76/84/1 17/110/1
f 70/17/3 38/15/3 39/77/3
f 70/17/3 39/77/3 64/107/3
f 70/17/3 64/107/3 65/108/3
f 65/108/3 76/16/3 70/17/3
f 15/112/1 19/111/1 77/113/1
f 77/113/1 78/114/1 15/112/1
f 23/116/2 20/115/2 79/117/2
f 79/117/2 53/76/2 23/116/2
f 2/2/10 4/118/10 7/119/10
f 7/119/10 5/120/10 2/2/10
f 81/122/5 80/121/5 82/123/5
f 8/3/9 7/124/9 4/125/9
f 4/125/9 3/126/9 8/3/9
f 3/126/9 80/127/9 8/3/9
f 80/127/9 3/126/9 25/128/9
f 25/128/9 82/129/9 80/127/9
f 25/128/9 30/130/9 82/129/9
f 30/130/9 83/131/9 82/129/9
f 30/130/9 29/132/9 83/131/9
f 29/132/9 84/133/9 83/131/9
f 29/132/9 79/134/9 84/133/9
f 29/132/9 36/135/9 79/134/9
f 36/135/9 52/103/9 79/134/9
f 36/135/9 61/102/9 52/103/9
f 79/134/9 52/103/9 53/136/9
f 84/133/9 79/134/9 85/137/9
f 86/138/9 84/133/9 85/137/9
f 85/137/9 58/139/9 86/138/9
f 58/139/9 47/140/9 86/138/9
f 85/137/9 87/141/9 58/139/9
f 85/137/9 88/85/9 87/141/9
f 87/141/9 89/142/9 58/139/9
f 58/139/9 46/106/9 47/140/9
f 8/144/11 80/143/11 81/145/11
f 81/145/11 26/146/11 8/144/11
f 90/148/6 83/147/6 84/149/6
f 27/151/12 90/150/12 84/152/12
f 84/152/12 86/153/12 27/151/12
f 92/114/1 91/113/1 88/154/1
f 88/154/1 85/155/1 92/114/1
f 92/156/3 78/14/3 77/18/3
f 77/18/3 91/79/3 92/156/3
f 89/158/8 93/157/8 57/159/8
f 57/159/8 58/57/8 89/158/8
f 94/160/3 59/108/3 57/161/3
f 57/161/3 93/162/3 94/160/3
f 94/74/1 93/72/1 89/73/1
f 89/73/1 87/154/1 94/74/1
f 65/86/8 77/163/8 19/164/8
f 19/164/8 17/92/8 65/86/8
f 17/92/8 76/93/8 65/86/8
f 77/163/8 65/86/8 56/56/8
f 77/163/8 56/56/8 59/159/8
f 77/163/8 59/159/8 94/157/8
f 91/165/8 77/163/8 94/157/8
f 94/157/8 88/166/8 91/165/8
f 65/86/8 67/87/8 56/56/8
f 56/56/8 67/87/8 74/90/8
f 74/90/8 75/91/8 56/56/8
f 88/166/8 94/157/8 87/158/8
f 47/168/13 43/167/13 28/169/13
f 28/169/13 86/170/13 47/168/13
f 28/172/14 27/171/14 86/173/14

usemtl wallDark
usemap wallDark

f 10/175/1 12/174/1 30/176/1
f 30/176/1 25/177/1 10/175/1
f 11/174/2 9/175/2 26/8/2
f 26/8/2 27/10/2 11/174/2
f 79/68/8 20/63/8 15/164/8
f 15/164/8 92/165/8 79/68/8
f 15/164/8 78/163/8 92/165/8
f 79/68/8 92/165/8 85/166/8
f 90/10/2 81/8/2 82/178/2
f 82/178/2 83/179/2 90/10/2
f 26/180/9 81/129/9 90/131/9
f 90/131/9 27/181/9 26/180/9
